<svg xmlns="http://www.w3.org/2000/svg" width="26" height="26" id="calender"><g fill="#fff" transform="translate(5 -1031.362)"><circle cx="8" cy="1044.362" r="13" fill="#3a6c87"></circle><path style="line-height:normal;text-indent:0;text-align:start;text-decoration-line:none;text-decoration-style:solid;text-decoration-color:#000;text-transform:none;block-progression:tb;isolation:auto;mix-blend-mode:normal;marker:none" fill="#2f4b6c" d="M14.855 25.854a13 13 0 0 0 .354-.043 13 13 0 0 0 1.268-.286 13 13 0 0 0 1.234-.408 13 13 0 0 0 1.185-.531 13 13 0 0 0 1.127-.647 13 13 0 0 0 1.057-.755 13 13 0 0 0 .977-.858 13 13 0 0 0 .886-.951 13 13 0 0 0 .786-1.035 13 13 0 0 0 .68-1.108 13 13 0 0 0 .566-1.17 13 13 0 0 0 .445-1.22 13 13 0 0 0 .289-1.135L18.502 8.5a.5.5 0 0 0-.5-.5h-.695l-.903-.902A.335.335 0 0 0 16.168 7h-.332a.337.337 0 0 0-.13.025.333.333 0 0 0-.203.309L15.501 8h-4.195l-.903-.902A.335.335 0 0 0 10.168 7h-.332a.334.334 0 0 0-.334.334V8h-1.5a.5.5 0 0 0-.502.5v10a.5.5 0 0 0 .502.5l6.853 6.854z" color="#000" font-family="sans-serif" font-weight="400" transform="translate(-5 1031.362)"></path><path d="M4.334 2A.334.334 0 0 0 4 2.334V3H2.5a.5.5 0 0 0-.502.5v10a.5.5 0 0 0 .502.5h10a.5.5 0 0 0 .5-.5v-10a.5.5 0 0 0-.5-.5H11v-.666A.334.334 0 0 0 10.666 2h-.332a.334.334 0 0 0-.334.334V3H5v-.666A.334.334 0 0 0 4.666 2h-.332ZM3 4h9v1H3V4Zm0 2h9v7H3V6zm1 1v1h1V7H4Zm2 0v1h1V7H6Zm2 0v1h1V7H8Zm2 0v1h1V7h-1zM4 9v1h1V9H4Zm2 0v1h1V9H6zm2 0v1h1V9H8zm2 0v1h1V9h-1zm-6 2v1h1v-1H4zm2 0v1h1v-1H6zm2 0v1h1v-1H8z" color="#000" font-family="sans-serif" font-weight="400" overflow="visible" transform="translate(.501 1036.362)" style="line-height:normal;text-indent:0;text-align:start;text-decoration-line:none;text-decoration-style:solid;text-decoration-color:#000;text-transform:none;block-progression:tb;isolation:auto;mix-blend-mode:normal;marker:none"></path></g></svg>