<svg xmlns="http://www.w3.org/2000/svg" xmlns:xlink="http://www.w3.org/1999/xlink" width="48" height="48" id="credit"><defs><linearGradient id="b" x1="949.87" x2="974.39" y1="518.014" y2="544.657" gradientTransform="translate(-1454.353 211.343) scale(1.53785)" gradientUnits="userSpaceOnUse" xlink:href="#a"></linearGradient><linearGradient id="a"><stop offset="0" stop-color="#24f7bc"></stop><stop offset="1" stop-color="#24c4fc"></stop></linearGradient></defs><g font-family="sans-serif" font-size="45.121" font-weight="400" letter-spacing="0" transform="translate(0 -1004.362)" word-spacing="0" style="line-height:125%"><rect width="48" height="48" y="1004.362" fill="url(#b)" rx="10.144" ry="10.144"></rect><path fill="#fff" d="m16.531 1016.144-.625.25.344.907.625-.25zm.938.25-.375.875.906.375.375-.906zm-2.469.344-.188.062h-.03l-.688.25.312.906.719-.25.219-.062zm4.25.344-.344.906.907.344.343-.906zm-6.063.25-.437.156-.469.125.25.938.5-.125h.031l.438-.157zm7.876.375-.282.937.25.062h.032l.687.157.219-.938-.657-.156zm-9.688.156-.781.156h-.031l-.126.031.157.97.156-.032h.031l.781-.187zm11.5.219-.125.969.813.094h.03l.157.03.063-.968-.157-.031zm-13.344.094-.969.062.063.969.969-.062zm14.969.062-.031 1.219.968.03.032-.75v-.468l-.469-.031Zm-7.813.844c1.229.492 3.199 1.362 5.782 1.5-.086 4.945-1.518 7.954-3.375 9.937-.117.124-.224.26-.344.375-.04.04-.084.087-.125.125-.28.26-.583.523-.875.75-.019.014-.044.017-.063.031-.32.244-.642.481-.968.688-.352-.222-.72-.487-1.063-.75a10.49 10.49 0 0 1-1.031-.875c-2.018-1.973-3.599-5.032-3.688-10.282 2.135-.139 4.301-.952 5.75-1.5zm-7.718.469-.969.03.031.97.969-.032Zm15.469.437v.968h1.437v-.968h-.938zm2.406 0v.969h.968v-.969zm1.937 0v.969h.969v-.969zm1.938 0v.969h.968v-.969zm1.937 0v.969h.969v-.969zm1.938 0v.969h1v-.969zm1.968 0v.969h.97v-.969zm2.063.062-.281.906.156.062.281.188.094.125.781-.563-.125-.187-.125-.125-.406-.28-.125-.062zm-29.563 1.406-.968.094.094.97.968-.095zm7.657.5c-1.795 0-3.375 1.55-3.375 3.344 0 1.795 1.58 3.344 3.375 3.344 1.794 0 3.343-1.55 3.343-3.344 0-1.794-1.549-3.344-3.343-3.344zm22.312 0v.97H40v-.97zm-22.312 1c.936 0 1.84.74 2.187 1.625.094.239.157.467.157.72 0 1.187-1.156 2.343-2.344 2.343s-2.375-1.156-2.375-2.344 1.187-2.344 2.375-2.344zm2.187 1.625-.687-.718-2.125 2.062-.907-.844-.687.72 1.594 1.53zm4.469-1.625h13.156c.309 0 .532.224.532.532v.406H23.218c.051-.308.118-.613.156-.938zm-14.094.407-.937.156.156.969.969-.188zm29.75.53v.97H40v-.97zm-16.031 1h14.063v1.907H22.468c.212-.588.378-1.231.531-1.906zm-13.344.313-.937.25.25.938.937-.25zm29.375.625v.97H40v-.97zm-28.812 1.188-.938.344.344.906.906-.313zm28.812.75v1H40v-1zm-16.968.03h15v8.157a.514.514 0 0 1-.532.531H15.313a.514.514 0 0 1-.532-.53v-3.626c.546.449 1.095.848 1.656 1.188.02.012.041.022.063.03l.219.126.25-.157a13.157 13.157 0 0 0 1.281-.875h9.156v-2.937h-6.375c.382-.572.72-1.211 1.032-1.906zm9.125.938c-1.26.084-2.282 1.176-2.282 2.438.003 1.33 1.139 2.456 2.469 2.437a2.33 2.33 0 0 0 1.156-.312c.35.197.737.312 1.157.312 1.32 0 2.437-1.118 2.437-2.437 0-1.32-1.118-2.438-2.438-2.438-.404 0-.784.129-1.124.313a2.42 2.42 0 0 0-1.157-.313h-.031zm-20.25.031-.876.438.282.625.031.03.156.25.813-.5-.125-.218zm20.312.97h.125c.107-.001.206.07.313.093-.125.183-.241.382-.313.594-.003.01.003.022 0 .031-.026.08-.045.167-.063.25a2.232 2.232 0 0 0-.062.469c0 .157.03.32.063.469.001.01-.002.022 0 .03a2.564 2.564 0 0 0 .375.844c-.107.024-.206.094-.313.094-.718.01-1.467-.72-1.469-1.437 0-.686.66-1.392 1.344-1.438zm2.438 0c.713 0 1.437.724 1.437 1.437 0 .713-.724 1.437-1.438 1.437-.713 0-1.437-.724-1.437-1.437 0-.08.016-.17.031-.25.149-.617.783-1.188 1.407-1.188zm5.343 0v.968H40v-.969zm-27.187.687-.813.5.094.187.031.031.438.625.781-.562-.438-.594zm8.406.28c.004-.01.027.01.031 0h6.125v.938h-7c.216-.21.419-.453.625-.687.072-.082.149-.165.219-.25zm18.781.97v.968H40v-.968zm-27.156.656v.969h.969v-.97zm27.156 1.281v.969H40v-.969zm-27.156.656v.97h.969v-.97zm3.875.313v.969h2.906v-.97zm3.875 0v.969h2.906v-.97zm3.875 0v.969h2.906v-.97zm3.875 0v.969h2.906v-.97zm11.656.969v.968H40v-.968zm-27.156.656v.969h.969v-.97zm27.156 1.281v.062l-.031.219-.031.094-.157.25.813.531.188-.281.062-.125.063-.25.03-.094.032-.25v-.156zm-26.125.375-.812.531.25.375.125.125.406.282.125.062h.031l.188-.563.187-.312-.312-.22zm1.219.531v.97h.969v-.97zm1.938 0v.97h1v-.97zm1.968 0v.97H19v-.97zm1.938 0v.97h.968v-.97zm1.937 0v.97h.969v-.97zm1.938 0v.97h.968v-.97zm1.937 0v.97h.969v-.97zm1.938 0v.97h.968v-.97zm1.937 0v.97h.969v-.97zm1.938 0v.97h.968v-.97zm1.968 0v.97h.97v-.97zm1.938 0v.97h.969v-.97zm1.938 0v.97h.843l.157-.032-.094-.937h-.157z" color="#000" font-size="medium" overflow="visible" style="line-height:125%;text-indent:0;text-align:start;text-decoration-line:none;text-transform:none;block-progression:tb"></path></g></svg>