<svg xmlns="http://www.w3.org/2000/svg" width="32" height="32" viewBox="0 0 8.467 8.467" id="email"><g transform="translate(0 -16.938)"><path fill="#0188d1" fill-opacity=".98" style="line-height:normal;font-variant-ligatures:normal;font-variant-position:normal;font-variant-caps:normal;font-variant-numeric:normal;font-variant-alternates:normal;font-feature-settings:normal;text-indent:0;text-align:start;text-decoration-line:none;text-decoration-style:solid;text-decoration-color:#000;text-transform:none;text-orientation:mixed;shape-padding:0;isolation:auto;mix-blend-mode:normal" d="m 4.2207031,17.470703 a 0.26460978,0.26460978 0 0 0 -0.1484375,0.05469 l -3.4394531,2.636718 a 0.26460978,0.26460978 0 0 0 -0.10351562,0.210938 v 3.703125 c 0,0.435161 0.35780738,0.794922 0.79296872,0.794922 h 5.8222656 c 0.4351614,0 0.7929688,-0.359761 0.7929688,-0.794922 V 20.373047 A 0.26460978,0.26460978 0 0 0 7.8339844,20.162109 L 4.3945312,17.525391 a 0.26460978,0.26460978 0 0 0 -0.1738281,-0.05469 z" color="#000" font-family="sans-serif" font-weight="400" overflow="visible" paint-order="markers fill stroke"></path><path fill="#0178be" style="line-height:normal;font-variant-ligatures:normal;font-variant-position:normal;font-variant-caps:normal;font-variant-numeric:normal;font-variant-alternates:normal;font-feature-settings:normal;text-indent:0;text-align:start;text-decoration-line:none;text-decoration-style:solid;text-decoration-color:#000;text-transform:none;text-orientation:mixed;shape-padding:0;isolation:auto;mix-blend-mode:normal" d="m 4.2333333,17.470768 v 7.400582 h 2.9114501 c 0.4351615,0 0.7927165,-0.360139 0.7927165,-0.7953 V 20.372916 A 0.26460979,0.26460979 0 0 0 7.834147,20.162077 L 4.3945637,17.525545 a 0.26460979,0.26460979 0 0 0 -0.1612304,-0.05478 z" color="#000" font-family="sans-serif" font-weight="400" overflow="visible" paint-order="markers fill stroke"></path><path fill="#c8d4dd" style="line-height:normal;font-variant-ligatures:normal;font-variant-position:normal;font-variant-caps:normal;font-variant-numeric:normal;font-variant-alternates:normal;font-feature-settings:normal;text-indent:0;text-align:start;text-decoration-line:none;text-decoration-style:solid;text-decoration-color:#000;text-transform:none;text-orientation:mixed;shape-padding:0;isolation:auto;mix-blend-mode:normal" d="m 4.2333333,17.470768 a 0.26460979,0.26460979 0 0 0 -0.012401,0 0.26460979,0.26460979 0 0 0 -0.1488282,0.05478 L 0.63303628,20.16208 a 0.26460979,0.26460979 0 0 0 0,0.420129 l 3.43906652,2.64635 a 0.26460979,0.26460979 0 0 0 0.1612305,0.05426 z" color="#000" font-family="sans-serif" font-weight="400" overflow="visible" paint-order="markers fill stroke"></path><path fill="#aebdc0" style="line-height:normal;font-variant-ligatures:normal;font-variant-position:normal;font-variant-caps:normal;font-variant-numeric:normal;font-variant-alternates:normal;font-feature-settings:normal;text-indent:0;text-align:start;text-decoration-line:none;text-decoration-style:solid;text-decoration-color:#000;text-transform:none;text-orientation:mixed;shape-padding:0;isolation:auto;mix-blend-mode:normal" d="m 4.2333333,17.470768 v 5.812048 a 0.26460979,0.26460979 0 0 0 0.1612304,-0.05426 l 3.4395833,-2.64635 a 0.26460979,0.26460979 0 0 0 0,-0.420129 L 4.3945637,17.525545 a 0.26460979,0.26460979 0 0 0 -0.1612304,-0.05478 z" color="#000" font-family="sans-serif" font-weight="400" overflow="visible" paint-order="markers fill stroke"></path></g></svg>