<svg xmlns="http://www.w3.org/2000/svg" xmlns:xlink="http://www.w3.org/1999/xlink" width="157" height="158" viewBox="0 0 157 158" id="skype"><defs><linearGradient id="a" x1="53.605%" x2="29.268%" y1="74.607%" y2="2.863%"><stop offset="0%" stop-color="#0359DE"></stop><stop offset="100%" stop-color="#0045A7"></stop></linearGradient><linearGradient id="e" x1="101.173%" x2="12.25%" y1="100%" y2="6.349%"><stop offset="0%" stop-color="#006AF3"></stop><stop offset="100%" stop-color="#025FAD"></stop></linearGradient><linearGradient id="i" x1="16.446%" x2="85.016%" y1="8.542%" y2="89.561%"><stop offset="0%" stop-color="#0071C2"></stop><stop offset="100%" stop-color="#00B9FF"></stop></linearGradient><linearGradient id="o" x1="29.468%" x2="97.963%" y1="50%" y2="50%"><stop offset="0%" stop-color="#F0F0F0"></stop><stop offset="100%" stop-color="#FFF"></stop></linearGradient><filter id="d" width="133%" height="133%" x="-16.5%" y="-16.5%" filterUnits="objectBoundingBox"><feGaussianBlur in="SourceAlpha" result="shadowBlurInner1" stdDeviation="7"></feGaussianBlur><feOffset dx="6" dy="7" in="shadowBlurInner1" result="shadowOffsetInner1"></feOffset><feComposite in="shadowOffsetInner1" in2="SourceAlpha" k2="-1" k3="1" operator="arithmetic" result="shadowInnerInner1"></feComposite><feColorMatrix in="shadowInnerInner1" result="shadowMatrixInner1" values="0 0 0 0 1   0 0 0 0 1   0 0 0 0 1  0 0 0 0.15 0"></feColorMatrix><feGaussianBlur in="SourceAlpha" result="shadowBlurInner2" stdDeviation="10"></feGaussianBlur><feOffset dy="11" in="shadowBlurInner2" result="shadowOffsetInner2"></feOffset><feComposite in="shadowOffsetInner2" in2="SourceAlpha" k2="-1" k3="1" operator="arithmetic" result="shadowInnerInner2"></feComposite><feColorMatrix in="shadowInnerInner2" result="shadowMatrixInner2" values="0 0 0 0 0   0 0 0 0 0   0 0 0 0 0  0 0 0 0.14 0"></feColorMatrix><feOffset dx="1" dy="1" in="SourceAlpha" result="shadowOffsetInner3"></feOffset><feComposite in="shadowOffsetInner3" in2="SourceAlpha" k2="-1" k3="1" operator="arithmetic" result="shadowInnerInner3"></feComposite><feColorMatrix in="shadowInnerInner3" result="shadowMatrixInner3" values="0 0 0 0 0   0 0 0 0 0   0 0 0 0 0  0 0 0 0.1 0"></feColorMatrix><feMerge><feMergeNode in="shadowMatrixInner1"></feMergeNode><feMergeNode in="shadowMatrixInner2"></feMergeNode><feMergeNode in="shadowMatrixInner3"></feMergeNode></feMerge></filter><filter id="h" width="133%" height="133%" x="-16.5%" y="-16.5%" filterUnits="objectBoundingBox"><feOffset dx="-1" dy="-1" in="SourceAlpha" result="shadowOffsetInner1"></feOffset><feComposite in="shadowOffsetInner1" in2="SourceAlpha" k2="-1" k3="1" operator="arithmetic" result="shadowInnerInner1"></feComposite><feColorMatrix in="shadowInnerInner1" result="shadowMatrixInner1" values="0 0 0 0 1   0 0 0 0 1   0 0 0 0 1  0 0 0 0.05 0"></feColorMatrix><feGaussianBlur in="SourceAlpha" result="shadowBlurInner2" stdDeviation="10"></feGaussianBlur><feOffset dy="11" in="shadowBlurInner2" result="shadowOffsetInner2"></feOffset><feComposite in="shadowOffsetInner2" in2="SourceAlpha" k2="-1" k3="1" operator="arithmetic" result="shadowInnerInner2"></feComposite><feColorMatrix in="shadowInnerInner2" result="shadowMatrixInner2" values="0 0 0 0 0   0 0 0 0 0   0 0 0 0 0  0 0 0 0.14 0"></feColorMatrix><feOffset dx="1" dy="1" in="SourceAlpha" result="shadowOffsetInner3"></feOffset><feComposite in="shadowOffsetInner3" in2="SourceAlpha" k2="-1" k3="1" operator="arithmetic" result="shadowInnerInner3"></feComposite><feColorMatrix in="shadowInnerInner3" result="shadowMatrixInner3" values="0 0 0 0 0   0 0 0 0 0   0 0 0 0 0  0 0 0 0.1 0"></feColorMatrix><feMerge><feMergeNode in="shadowMatrixInner1"></feMergeNode><feMergeNode in="shadowMatrixInner2"></feMergeNode><feMergeNode in="shadowMatrixInner3"></feMergeNode></feMerge></filter><filter id="l" width="100.7%" height="100.7%" x="-.3%" y="-.3%" filterUnits="objectBoundingBox"><feOffset dx="-1" dy="-1" in="SourceAlpha" result="shadowOffsetInner1"></feOffset><feComposite in="shadowOffsetInner1" in2="SourceAlpha" k2="-1" k3="1" operator="arithmetic" result="shadowInnerInner1"></feComposite><feColorMatrix in="shadowInnerInner1" values="0 0 0 0 1   0 0 0 0 1   0 0 0 0 1  0 0 0 0.05 0"></feColorMatrix></filter><filter id="m" width="132.8%" height="122.9%" x="-16.4%" y="-10.2%" filterUnits="objectBoundingBox"><feOffset dy="1" in="SourceAlpha" result="shadowOffsetOuter1"></feOffset><feGaussianBlur in="shadowOffsetOuter1" result="shadowBlurOuter1" stdDeviation="3"></feGaussianBlur><feColorMatrix in="shadowBlurOuter1" result="shadowMatrixOuter1" values="0 0 0 0 0   0 0 0 0 0   0 0 0 0 0  0 0 0 0.1 0"></feColorMatrix><feOffset dy="1" in="SourceAlpha" result="shadowOffsetOuter2"></feOffset><feGaussianBlur in="shadowOffsetOuter2" result="shadowBlurOuter2" stdDeviation=".5"></feGaussianBlur><feColorMatrix in="shadowBlurOuter2" result="shadowMatrixOuter2" values="0 0 0 0 0   0 0 0 0 0   0 0 0 0 0  0 0 0 0.1 0"></feColorMatrix><feMerge><feMergeNode in="shadowMatrixOuter1"></feMergeNode><feMergeNode in="shadowMatrixOuter2"></feMergeNode></feMerge></filter><pattern id="c" width="512" height="512" x="-512" y="-512" patternUnits="userSpaceOnUse"><use xlink:href="#a"></use></pattern><pattern id="g" width="512" height="512" x="-449" y="-448" patternUnits="userSpaceOnUse"><use xlink:href="#b"></use></pattern><pattern id="k" width="512" height="512" x="-506" y="-505" patternUnits="userSpaceOnUse"><use xlink:href="#c"></use></pattern><circle id="b" cx="47" cy="47" r="47"></circle><circle id="f" cx="110" cy="111" r="47"></circle><circle id="j" cx="79" cy="80" r="73"></circle><path id="n" d="M76.3720839,122 C69.4152863,121.84332 62.5005913,121.154999 55.9999047,118.327083 C54.6695159,117.748157 53.3947441,116.971912 52.2338051,116.105696 C49.5168908,114.078563 48.8489676,111.260103 49.4870032,108.111669 C49.9966521,105.598392 52.352316,103.838868 55.1529157,103.669919 C57.466737,103.530363 59.5962946,104.114145 61.6642578,105.099213 C65.1689057,106.768 68.6322308,108.562286 72.5534861,109.156036 C76.4066496,109.739562 80.2413608,109.802183 83.9713353,108.508099 C88.6517361,106.884041 91.0622373,102.819295 90.1159694,98.2937084 C89.6518017,96.0743666 88.2338292,94.4986161 86.4980084,93.1541801 C82.987383,90.4348921 78.8753667,88.8095559 74.8748443,86.9713081 C70.0158975,84.7389309 65.1088706,82.5850218 60.3832486,80.1019047 C56.3497198,77.9822455 53.04259,74.9352832 51.06351,70.7690652 C47.5931679,63.4631035 47.8564388,52.5787951 56.8918552,45.8118858 C61.6556814,42.2442741 67.1009452,40.4494776 72.903561,39.588374 C80.4058726,38.474997 87.8515276,38.9330254 95.1324109,41.0368377 C97.0930386,41.6032388 99.0126033,42.5359094 100.731271,43.633695 C103.616856,45.4770548 104.610684,48.9232583 103.488729,52.1095205 C102.361836,55.3098405 98.7916948,56.8055894 95.2543004,55.5334871 C92.7746678,54.6414564 90.3444147,53.6009243 87.828917,52.8239119 C83.168268,51.3843941 78.4171766,50.9664943 73.6250221,52.2058803 C72.6699178,52.4527862 71.7311868,52.8221227 70.8441743,53.2533135 C64.4864285,56.3452607 63.7771824,63.5699427 69.6031885,67.5508535 C72.2083491,69.3308254 75.1685226,70.6535357 78.075938,71.9488972 C83.7896706,74.4938686 89.7406849,76.5304591 95.1142185,79.7954449 C99.5529194,82.4922403 103.43805,85.7779294 105.34358,90.6690183 C109.359956,100.979258 106.487626,114.633206 92.1327338,119.604808 C87.0404037,121.368422 81.7736859,121.915142 76.3720839,122"></path></defs><g fill="none" fill-rule="evenodd"><use fill="url(#a)" xlink:href="#b"></use><use fill="url(#c)" fill-opacity=".012" xlink:href="#b"></use><use fill="#000" filter="url(#d)" xlink:href="#b"></use><g><use fill="url(#e)" xlink:href="#f"></use><use fill="url(#g)" fill-opacity=".012" xlink:href="#f"></use><use fill="#000" filter="url(#h)" xlink:href="#f"></use></g><g><use fill="url(#i)" xlink:href="#j"></use><use fill="url(#k)" fill-opacity=".012" xlink:href="#j"></use><use fill="#000" filter="url(#l)" xlink:href="#j"></use></g><g><use fill="#000" filter="url(#m)" xlink:href="#n"></use><use fill="url(#o)" xlink:href="#n"></use></g></g></svg>