<svg id="SvgjsSvg1012" width="288" height="288" xmlns="http://www.w3.org/2000/svg" version="1.1" xmlns:xlink="http://www.w3.org/1999/xlink" xmlns:svgjs="http://svgjs.com/svgjs"><defs id="SvgjsDefs1013"></defs><g id="SvgjsG1014"><svg xmlns="http://www.w3.org/2000/svg" viewBox="0 0 48 48" width="288" height="288"><circle cx="24" cy="24" r="24" fill="#ff2c0b" fill-rule="evenodd" class="colorffa40b svgShape"></circle><path fill="#ffffff" d="M24 11a3.999 3.999 0 0 0-3.99 3.902v.008c-.001.031-.01.059-.01.09 0 .018.008.033.01.05.002.018-.003.035 0 .052l1.875 8.908a1.996 1.996 0 0 0-1.904 1.988c0 .735.403 1.373.996 1.72A1.497 1.497 0 0 1 19.5 29h-2a2.503 2.503 0 0 0-2.5 2.5v3a.5.5 0 0 0 .5.5h.5v1.5a.5.5 0 0 0 .5.5h15a.5.5 0 0 0 .5-.5V35h.5a.5.5 0 0 0 .5-.5v-3c0-1.379-1.122-2.5-2.5-2.5h-2c-.758 0-1.38-.568-1.48-1.299.574-.352.962-.98.962-1.701a1.996 1.996 0 0 0-1.869-1.986l1.875-8.912c.004-.018 0-.034 0-.051.003-.018.012-.033.012-.051 0-.031-.009-.059-.01-.09v-.008A3.999 3.999 0 0 0 24 11Zm0 1a3 3 0 0 1 2.996 2.965L25.094 24h-2.188l-1.902-9.035A3 3 0 0 1 24 12Zm-2.018 13h4a1.001 1.001 0 0 1 0 2h-4a1.001 1.001 0 0 1 0-2zm4.069 2.992c.075.374.24.714.463 1.008h-5.026c.221-.293.385-.63.461-1.004.011 0 .022.004.033.004h4c.023 0 .046-.007.069-.008zM17.5 30h13c.827 0 1.5.673 1.5 1.5V34H16v-2.5c0-.827.673-1.5 1.5-1.5Zm-.5 5h14v1H17v-1z" class="colorfff svgShape"></path></svg></g></svg>